<svg width="3887" height="800" viewBox="0 0 3887 800" fill="none" xmlns="http://www.w3.org/2000/svg">
<path d="M22.3331 632C15.7821 632 10.4221 629.915 6.25328 625.747C2.08442 621.578 0 616.218 0 609.667V29C0 22.4489 2.08442 17.0889 6.25328 12.92C10.4221 8.75112 15.7821 6.66667 22.3331 6.66667H140.252C146.208 6.66667 151.27 8.75112 155.439 12.92C160.203 17.0889 162.585 22.4489 162.585 29V497.107H432.37C438.921 497.107 444.281 499.489 448.45 504.253C453.214 508.422 455.596 513.782 455.596 520.333V609.667C455.596 616.218 453.214 621.578 448.45 625.747C444.281 629.915 438.921 632 432.37 632H22.3331Z" fill="#171717"/>
<path d="M604.787 6.66672C611.338 6.66672 616.4 8.45335 619.974 12.0267C623.547 16.1956 625.334 21.2578 625.334 27.2134V611.453C625.334 617.409 623.547 622.173 619.974 625.747C616.4 629.916 611.338 632 604.787 632H557.441C551.485 632 546.721 629.916 543.148 625.747C539.574 622.173 537.788 617.409 537.788 611.453V84.3867H240.31C233.759 84.3867 228.697 82.3023 225.124 78.1334C221.55 74.56 219.764 69.4978 219.764 62.9467V27.2134C219.764 21.2578 221.55 16.1956 225.124 12.0267C228.697 8.45335 233.759 6.66672 240.31 6.66672H604.787Z" fill="#171717"/>
<path d="M914.051 632.415C907.583 632.415 902.291 630.357 898.175 626.24C894.059 622.124 892 616.832 892 610.364V28.2248C892 21.7566 894.059 16.4646 898.175 12.3484C902.291 8.23229 907.583 6.17422 914.051 6.17422H1018.13C1024.6 6.17422 1029.89 8.23229 1034.01 12.3484C1038.12 16.4646 1040.18 21.7566 1040.18 28.2248V610.364C1040.18 616.832 1038.12 622.124 1034.01 626.24C1029.89 630.357 1024.6 632.415 1018.13 632.415H914.051Z" fill="#171717"/>
<path d="M1212.29 800C1207 800 1202.59 798.236 1199.06 794.708C1195.54 791.18 1193.77 786.77 1193.77 781.477C1193.77 780.301 1193.77 778.537 1193.77 776.185C1194.36 774.421 1195.24 772.363 1196.42 770.011L1265.22 604.19L1095.87 203.749C1094.1 199.632 1093.22 196.104 1093.22 193.164C1094.4 187.872 1096.75 183.462 1100.28 179.934C1103.8 175.818 1108.21 173.76 1113.51 173.76H1214.06C1221.7 173.76 1227.29 175.818 1230.82 179.934C1234.93 183.462 1237.58 187.578 1238.76 192.282L1340.19 448.953L1443.39 192.282C1445.74 187.578 1448.68 183.462 1452.21 179.934C1456.32 175.818 1462.2 173.76 1469.85 173.76H1568.63C1573.93 173.76 1578.34 175.818 1581.86 179.934C1585.98 183.462 1588.04 187.578 1588.04 192.282C1588.04 195.222 1587.16 199.044 1585.39 203.749L1335.78 781.477C1334.01 786.182 1331.07 790.298 1326.96 793.826C1322.84 797.942 1316.96 800 1309.32 800H1212.29Z" fill="#171717"/>
<path d="M1657.44 632.415C1650.97 632.415 1645.68 630.357 1641.56 626.24C1637.44 622.124 1635.39 616.832 1635.39 610.364V195.81C1635.39 189.93 1637.44 184.932 1641.56 180.816C1645.68 176.112 1650.97 173.76 1657.44 173.76H1758.87C1765.34 173.76 1770.63 176.112 1774.75 180.816C1778.86 184.932 1780.92 189.93 1780.92 195.81V231.092C1796.8 212.863 1815.61 198.75 1837.37 188.754C1859.71 178.758 1884.71 173.76 1912.34 173.76H1951.15C1957.03 173.76 1962.03 175.818 1966.15 179.934C1970.85 184.05 1973.2 189.342 1973.2 195.81V286.659C1973.2 292.54 1970.85 297.832 1966.15 302.536C1962.03 306.652 1957.03 308.71 1951.15 308.71H1865.59C1841.49 308.71 1822.67 315.472 1809.15 328.997C1796.21 341.933 1789.74 360.456 1789.74 384.564V610.364C1789.74 616.832 1787.39 622.124 1782.68 626.24C1778.57 630.357 1773.28 632.415 1766.81 632.415H1657.44Z" fill="#171717"/>
<path d="M2040.33 632.415C2033.86 632.415 2028.57 630.357 2024.45 626.24C2020.33 622.124 2018.28 616.832 2018.28 610.364V195.81C2018.28 189.342 2020.33 184.05 2024.45 179.934C2028.57 175.818 2033.86 173.76 2040.33 173.76H2141.76C2148.23 173.76 2153.52 175.818 2157.64 179.934C2161.75 184.05 2163.81 189.342 2163.81 195.81V229.327C2179.1 211.099 2199.09 195.81 2223.79 183.462C2248.48 171.114 2277.59 164.939 2311.11 164.939C2345.21 164.939 2375.2 172.584 2401.08 187.872C2427.54 203.161 2448.12 225.799 2462.82 255.788C2478.11 285.189 2485.75 321.352 2485.75 364.278V610.364C2485.75 616.832 2483.4 622.124 2478.69 626.24C2474.58 630.357 2469.58 632.415 2463.7 632.415H2352.56C2346.68 632.415 2341.39 630.357 2336.69 626.24C2332.57 622.124 2330.51 616.832 2330.51 610.364V369.57C2330.51 341.933 2323.75 320.764 2310.23 306.064C2297.29 290.775 2277.89 283.131 2252.01 283.131C2227.9 283.131 2208.5 290.775 2193.8 306.064C2179.69 320.764 2172.63 341.933 2172.63 369.57V610.364C2172.63 616.832 2170.28 622.124 2165.57 626.24C2161.46 630.357 2156.46 632.415 2150.58 632.415H2040.33Z" fill="#171717"/>
<path d="M2600.94 632.415C2595.06 632.415 2590.07 630.651 2585.95 627.122C2582.42 623.006 2580.66 618.008 2580.66 612.128V26.4609C2580.66 20.5807 2582.42 15.8765 2585.95 12.3484C2590.07 8.23229 2595.06 6.17422 2600.94 6.17422H2642.4C2648.87 6.17422 2653.87 8.23229 2657.39 12.3484C2660.92 15.8765 2662.69 20.5807 2662.69 26.4609V612.128C2662.69 618.008 2660.92 623.006 2657.39 627.122C2653.87 630.651 2648.87 632.415 2642.4 632.415H2600.94Z" fill="#171717"/>
<path d="M2805.51 632.415C2799.63 632.415 2794.64 630.651 2790.52 627.122C2786.99 623.006 2785.23 618.008 2785.23 612.128V194.046C2785.23 188.166 2786.99 183.462 2790.52 179.934C2794.64 175.818 2799.63 173.76 2805.51 173.76H2847.85C2853.73 173.76 2858.44 175.818 2861.96 179.934C2865.49 183.462 2867.26 188.166 2867.26 194.046V612.128C2867.26 618.008 2865.49 623.006 2861.96 627.122C2858.44 630.651 2853.73 632.415 2847.85 632.415H2805.51ZM2798.46 88.2029C2792.58 88.2029 2787.58 86.4388 2783.46 82.9107C2779.93 78.7946 2778.17 73.7964 2778.17 67.9162V20.2866C2778.17 14.4064 2779.93 9.70232 2783.46 6.17422C2787.58 2.0581 2792.58 0 2798.46 0H2854.02C2859.91 0 2864.61 2.0581 2868.14 6.17422C2872.25 9.70232 2874.31 14.4064 2874.31 20.2866V67.9162C2874.31 73.7964 2872.25 78.7946 2868.14 82.9107C2864.61 86.4388 2859.91 88.2029 2854.02 88.2029H2798.46Z" fill="#171717"/>
<path d="M3010.1 632.415C3004.22 632.415 2999.22 630.651 2995.11 627.122C2991.58 623.006 2989.82 618.008 2989.82 612.128V194.046C2989.82 188.166 2991.58 183.462 2995.11 179.934C2999.22 175.818 3004.22 173.76 3010.1 173.76H3051.56C3057.44 173.76 3062.14 175.818 3065.67 179.934C3069.79 183.462 3071.84 188.166 3071.84 194.046V232.856C3087.13 212.863 3106.24 196.692 3129.18 184.344C3152.7 171.408 3182.69 164.939 3219.14 164.939C3257.36 164.939 3289.71 173.466 3316.17 190.518C3343.22 206.983 3363.5 230.209 3377.03 260.198C3390.55 289.599 3397.31 323.999 3397.31 363.396V612.128C3397.31 618.008 3395.55 623.006 3392.02 627.122C3388.49 630.651 3383.79 632.415 3377.91 632.415H3333.81C3327.93 632.415 3322.93 630.651 3318.81 627.122C3315.28 623.006 3313.52 618.008 3313.52 612.128V367.806C3313.52 326.645 3303.52 294.598 3283.53 271.665C3263.54 248.144 3234.14 236.384 3195.33 236.384C3158.87 236.384 3129.47 248.144 3107.13 271.665C3085.37 294.598 3074.49 326.645 3074.49 367.806V612.128C3074.49 618.008 3072.43 623.006 3068.32 627.122C3064.79 630.651 3060.08 632.415 3054.2 632.415H3010.1Z" fill="#171717"/>
<path d="M3528.25 632.415C3522.37 632.415 3517.37 630.651 3513.25 627.122C3509.72 623.006 3507.96 618.008 3507.96 612.128V26.4609C3507.96 20.5807 3509.72 15.8765 3513.25 12.3484C3517.37 8.23229 3522.37 6.17422 3528.25 6.17422H3569.7C3575.58 6.17422 3580.29 8.23229 3583.81 12.3484C3587.93 15.8765 3589.99 20.5807 3589.99 26.4609V333.407L3763.75 188.754C3770.8 182.874 3776.1 179.052 3779.62 177.288C3783.74 174.936 3790.21 173.76 3799.03 173.76H3845.78C3851.07 173.76 3855.48 175.524 3859.01 179.052C3862.53 182.58 3864.3 186.99 3864.3 192.282C3864.3 194.634 3863.42 197.28 3861.65 200.221C3860.48 203.161 3857.83 206.101 3853.71 209.041L3649.97 378.39L3875.77 598.015C3882.82 603.896 3886.35 609.188 3886.35 613.892C3886.35 619.184 3884.59 623.594 3881.06 627.122C3877.53 630.651 3873.12 632.415 3867.83 632.415H3821.96C3813.14 632.415 3806.67 631.533 3802.56 629.768C3798.44 627.416 3793.15 623.3 3786.68 617.42L3589.99 429.548V612.128C3589.99 618.008 3587.93 623.006 3583.81 627.122C3580.29 630.651 3575.58 632.415 3569.7 632.415H3528.25Z" fill="#171717"/>
</svg>
